<svg width="145" height="145" viewBox="0 0 145 145" fill="none" xmlns="http://www.w3.org/2000/svg">
<path d="M72.4999 0C32.482 0 0 32.4821 0 72.5C0 112.605 32.482 145 72.4999 145C112.604 145 145 112.518 145 72.5C145.086 32.4821 112.604 0 72.4999 0ZM105.762 104.636C104.462 106.801 101.69 107.407 99.525 106.108C82.4611 95.7139 61.0662 93.3752 35.7736 99.092C33.3482 99.6117 30.9229 98.1392 30.4032 95.7139C29.8835 93.2885 31.356 90.8632 33.7813 90.3435C61.4127 84.0203 85.1463 86.7055 104.202 98.399C106.454 99.6983 107.147 102.47 105.762 104.636ZM114.683 84.8865C113.037 87.5717 109.573 88.3513 106.888 86.7921C87.3983 74.7521 57.6881 71.2873 34.6475 78.3035C31.6159 79.1697 28.4976 77.5239 27.6314 74.5789C26.7652 71.5472 28.411 68.4289 31.4426 67.5627C57.7747 59.5938 90.5166 63.405 112.951 77.1774C115.463 78.7366 116.329 82.2013 114.683 84.8865ZM115.463 64.2712C92.0758 50.4122 53.5304 49.1129 31.1828 55.8692C27.6314 56.9952 23.8202 54.9164 22.6941 51.365C21.5681 47.8136 23.6469 44.0024 27.1983 42.8763C52.8375 35.0806 95.4539 36.6398 122.306 52.5777C125.511 54.4833 126.55 58.641 124.644 61.8459C122.825 65.1374 118.668 66.1768 115.463 64.2712Z" fill="#1ED760"/>
</svg>
